<?xml version="1.0" standalone="no"?>
<svg viewBox="0 0 200 200" xmlns="http://www.w3.org/2000/svg">
  <path fill="#AAA1FF" d="M43,-76.9C55.2,-67.5,64.1,-54.8,72.7,-41.4C81.4,-28.1,89.8,-14,88.6,-0.7C87.4,12.7,76.7,25.4,66.3,35.7C55.9,46,45.8,54,34.8,58.7C23.8,63.4,11.9,64.8,-0.9,66.3C-13.7,67.9,-27.4,69.5,-39.9,65.7C-52.5,61.9,-63.9,52.7,-67.7,40.9C-71.4,29,-67.4,14.5,-68.6,-0.7C-69.7,-15.8,-76,-31.7,-71.2,-41.7C-66.5,-51.8,-50.7,-56.1,-36.9,-64.6C-23.2,-73.2,-11.6,-86,1.9,-89.3C15.4,-92.6,30.8,-86.3,43,-76.9Z" transform="translate(100 100)" />
</svg>
