<svg id="visual" viewBox="0 0 1080 1920" width="1080" height="1920" xmlns="http://www.w3.org/2000/svg" xmlns:xlink="http://www.w3.org/1999/xlink" version="1.1"><rect x="0" y="0" width="1080" height="1920" fill="#000000"></rect><g fill="#5a23a6"><circle r="85" cx="372" cy="1631"></circle><circle r="22" cx="803" cy="1098"></circle><circle r="81" cx="741" cy="1574"></circle><circle r="59" cx="115" cy="781"></circle><circle r="27" cx="476" cy="888"></circle><circle r="54" cx="649" cy="897"></circle><circle r="50" cx="132" cy="130"></circle><circle r="36" cx="915" cy="349"></circle><circle r="37" cx="580" cy="428"></circle><circle r="79" cx="362" cy="655"></circle><circle r="30" cx="472" cy="1161"></circle><circle r="24" cx="895" cy="956"></circle><circle r="80" cx="489" cy="172"></circle><circle r="63" cx="830" cy="747"></circle><circle r="52" cx="801" cy="1750"></circle><circle r="43" cx="636" cy="642"></circle><circle r="60" cx="119" cy="1076"></circle><circle r="53" cx="973" cy="1693"></circle><circle r="47" cx="141" cy="1730"></circle><circle r="35" cx="913" cy="145"></circle><circle r="48" cx="951" cy="1294"></circle><circle r="50" cx="285" cy="254"></circle><circle r="64" cx="179" cy="617"></circle><circle r="62" cx="632" cy="1228"></circle><circle r="67" cx="311" cy="847"></circle><circle r="68" cx="608" cy="1450"></circle><circle r="31" cx="298" cy="424"></circle><circle r="69" cx="149" cy="1272"></circle><circle r="54" cx="352" cy="1390"></circle><circle r="36" cx="740" cy="282"></circle><circle r="63" cx="611" cy="1681"></circle><circle r="45" cx="776" cy="483"></circle><circle r="74" cx="678" cy="122"></circle><circle r="41" cx="110" cy="360"></circle><circle r="52" cx="143" cy="1542"></circle><circle r="41" cx="327" cy="1038"></circle><circle r="38" cx="783" cy="1370"></circle><circle r="27" cx="473" cy="1802"></circle><circle r="46" cx="972" cy="596"></circle><circle r="68" cx="323" cy="88"></circle><circle r="83" cx="949" cy="1482"></circle><circle r="77" cx="982" cy="1118"></circle><circle r="83" cx="992" cy="808"></circle><circle r="26" cx="294" cy="1825"></circle></g></svg>