<svg xmlns="http://www.w3.org/2000/svg" version="1.1" xmlns:xlink="http://www.w3.org/1999/xlink" xmlns:svgjs="http://svgjs.dev/svgjs" width="1920" height="1080" preserveAspectRatio="none" viewBox="0 0 1920 1080"><g mask="url(&quot;#SvgjsMask1001&quot;)" fill="none"><rect width="1920" height="1080" x="0" y="0" fill="rgba(14, 42, 71, 1)"></rect><path d="M540 238.5C520.22 238.5 507.91 247.43 504.34 270C484.08 398.18 480.82 407.51 492.35 540C498.65 612.34 507.98 679.66 540 679.66C575.82 679.66 616.51 617.48 628.04 540C646.99 412.65 636.1 390.32 600.97 270C592.08 239.57 568.53 238.5 540 238.5" stroke="rgba(51, 121, 194, 0.58)" stroke-width="2"></path><path d="M1573.04 0C1597.92 1.69 1597.91 18.31 1620 18.31C1632.88 18.31 1628.63 0.97 1642.98 0C1763.63 -8.18 1766.49 0 1890 0C2008.47 0 2011.67 -10.02 2126.94 0C2146.67 1.72 2157.67 4.41 2160 23.48C2174.2 139.41 2160 146.74 2160 270C2160 368.89 2187.79 381.99 2160 467.79C2144.06 516.99 2072.54 502.56 2072.54 540C2072.54 579.52 2143.01 569.24 2160 621.71C2186.74 704.24 2160 715.86 2160 810C2160 945 2227.5 1012.5 2160 1080C2092.5 1147.5 2025 1080 1890 1080C1755 1080 1755 1080 1620 1080C1485 1080 1485 1080 1350 1080C1215 1080 1215 1080 1080 1080C945 1080 945 1080 810 1080C675 1080 675 1080 540 1080C405 1080 405 1080 270 1080C148.17 1080 120.37 1115.82 26.34 1080C-14.63 1064.39 5.12 1029.58 0 977.14C-8.05 894.58 0 893.57 0 810C0 758.38 -11.44 756.31 0 706.76C19.72 621.31 62.31 617.26 62.31 540C62.31 500.13 9.72 514.63 0 472.5C-21.43 379.63 0 371.25 0 270C0 135 -67.5 67.5 0 0C67.5 -67.5 135 0 270 0C405 0 405 0 540 0C675 0 675 0 810 0C945 0 945 0 1080 0C1215 0 1215 0 1350 0C1461.52 0 1462.92 -7.47 1573.04 0" stroke="rgba(51, 121, 194, 0.58)" stroke-width="2"></path><path d="M270 795.41C238.28 795.41 206.47 802.88 206.47 810C206.47 817.1 238.28 823.85 270 823.85C300.04 823.85 330 817.1 330 810C330 802.88 300.05 795.41 270 795.41" stroke="rgba(51, 121, 194, 0.58)" stroke-width="2"></path><path d="M1080 783.38C1065.21 783.38 1055.77 793.2 1055.77 810C1055.77 874.01 1060.31 945 1080 945C1101.06 945 1137.27 866.48 1137.27 810C1137.27 785.67 1105.96 783.38 1080 783.38" stroke="rgba(51, 121, 194, 0.58)" stroke-width="2"></path><path d="M1620 630C1549.14 630 1490.4 734.8 1490.4 810C1490.4 860.01 1553.33 880.43 1620 880.43C1703.39 880.43 1790.53 863.42 1790.53 810C1790.53 738.21 1699.21 630 1620 630" stroke="rgba(51, 121, 194, 0.58)" stroke-width="2"></path><path d="M199.57 0C242.33 9.5 237.7 60 270 60C296.74 60 283.05 7.69 317.65 0C418.05 -22.31 428.83 0 540 0C634.5 0 729 -28.61 729 0C729 34.39 629.91 57.04 540 126C453.9 192.04 405.19 178.09 376.98 270C341.66 385.09 442.67 419.34 412.94 540C389.18 636.43 340.09 704.19 270 704.19C201.86 704.19 205.68 619.98 136.48 540C70.68 463.95 42.46 476.15 0 392.14C-25.78 341.15 0 331.07 0 270C0 135 -57.38 77.62 0 0C42.41 -57.38 107.33 -20.5 199.57 0" stroke="rgba(51, 121, 194, 0.58)" stroke-width="2"></path><path d="M816.28 270C937.35 156.77 953.19 56.04 1080 56.04C1194.09 56.04 1242.19 141.57 1298.08 270C1347.49 383.55 1346.41 432.94 1290.6 540C1237.37 642.1 1178.05 605.94 1080 688.31C1017.36 740.94 996.18 736.16 969.23 810C924.71 932.01 991.32 987.99 937.06 1080C911.7 1122.99 873.53 1080 810 1080C675 1080 675 1080 540 1080C405 1080 405 1080 270 1080C189.33 1080 108.66 1114.6 108.66 1080C108.66 1029.79 170.42 958.72 270 910.38C386.09 854.02 415.43 909.43 540 870.61C576.48 859.24 568.99 842.55 592.11 810C686.38 677.25 711.37 685.93 774.78 540C820.32 435.21 792.22 424.26 810 308.57C812.97 289.26 802.35 283.03 816.28 270" stroke="rgba(51, 121, 194, 0.58)" stroke-width="2"></path><path d="M1417.5 270C1417.5 193.57 1521.34 204.88 1620 132.71C1705.89 69.88 1695.72 44.67 1786.6 0C1830.72 -21.69 1838.3 0 1890 0C1939.59 0 1945.8 -19.49 1989.18 0C2080.8 41.16 2110.05 42.34 2160 121.3C2195.46 177.34 2160 195.65 2160 270C2160 329.65 2190.58 344.06 2160 389.3C2099.31 479.06 2050.22 450.17 1977.46 540C1915.22 616.85 1948.01 722.65 1890 722.65C1818.03 722.65 1807.13 627.73 1717.5 540C1672.13 495.59 1667.24 500.89 1620 458.37C1517.24 365.89 1417.5 356.4 1417.5 270" stroke="rgba(51, 121, 194, 0.58)" stroke-width="2"></path><path d="M1341.82 810C1345.57 798.63 1346.55 787.5 1350 787.5C1353.34 787.5 1345.77 804.07 1355.4 810C1480.77 887.22 1479.58 924.91 1620 953.8C1746.88 979.91 1773.97 968.2 1890 920C1947.05 896.3 1914.79 849.84 1966.15 810C2049.79 745.11 2093.46 710.53 2160 710.53C2190.38 710.53 2160 760.26 2160 810C2160 945 2227.5 1012.5 2160 1080C2092.5 1147.5 2025 1080 1890 1080C1755 1080 1755 1080 1620 1080C1485 1080 1485 1080 1350 1080C1301.78 1080 1254.61 1114.21 1253.57 1080C1250.52 979.21 1297.35 944.88 1341.82 810" stroke="rgba(51, 121, 194, 0.58)" stroke-width="2"></path><path d="M0 102.86C63.37 102.86 206.47 211.74 206.47 270C206.47 316.2 86.15 311.79 0 311.79C-17.09 311.79 0 290.89 0 270C0 186.43 -39.87 102.86 0 102.86" stroke="rgba(51, 121, 194, 0.58)" stroke-width="2"></path><path d="M540 13.5C528.33 13.5 516.18 3.61 516.18 0C516.18 -3.14 528.09 0 540 0C550.13 0 560.25 -3.07 560.25 0C560.25 3.68 550.37 13.5 540 13.5" stroke="rgba(51, 121, 194, 0.58)" stroke-width="2"></path><path d="M973.26 270C992.58 209.87 1028.67 183.4 1080 183.4C1126.18 183.4 1156.41 214.03 1168.27 270C1194.21 392.33 1188.49 419.58 1155.6 540C1144.35 581.2 1120.18 593.24 1080 593.24C1025.11 593.24 982.46 591.5 965.45 540C929.09 429.88 935.3 388.17 973.26 270" stroke="rgba(51, 121, 194, 0.58)" stroke-width="2"></path><path d="M1586.25 270C1586.25 257.26 1602.09 247.12 1620 247.12C1644.92 247.12 1671.92 256.89 1671.92 270C1671.92 284.03 1644.34 301.4 1620 301.4C1601.51 301.4 1586.25 284.4 1586.25 270" stroke="rgba(51, 121, 194, 0.58)" stroke-width="2"></path><path d="M2056.76 270C2056.76 246.67 2124.2 219.13 2160 219.13C2175.82 219.13 2160 244.57 2160 270C2160 290.4 2173.88 310.81 2160 310.81C2122.26 310.81 2056.76 292.51 2056.76 270" stroke="rgba(51, 121, 194, 0.58)" stroke-width="2"></path><path d="M210.66 540C210.66 433.9 239.36 315 270 315C300.79 315 333.53 434.62 333.53 540C333.53 583.61 301.15 612.97 270 612.97C239.72 612.97 210.66 582.88 210.66 540" stroke="rgba(51, 121, 194, 0.58)" stroke-width="2"></path><path d="M710.53 810C710.53 735.95 765.16 668.25 810 668.25C851.24 668.25 882.69 737.18 882.69 810C882.69 902.56 851.89 999 810 999C765.81 999 710.53 901.33 710.53 810" stroke="rgba(51, 121, 194, 0.58)" stroke-width="2"></path><path d="M2139.23 810C2139.23 800.15 2152.87 799.34 2160 799.34C2163.26 799.34 2160 804.67 2160 810C2160 846.82 2165.09 883.64 2160 883.64C2154.71 883.64 2139.23 842.3 2139.23 810" stroke="rgba(51, 121, 194, 0.58)" stroke-width="2"></path><path d="M190.98 1080C190.98 1055.41 218.02 1007.59 270 996.92C392.53 971.77 409.61 983.15 540 1008.37C624.38 1024.69 699.55 1061.27 699.55 1080C699.55 1097.09 619.78 1080 540 1080C405 1080 405 1080 270 1080C230.49 1080 190.98 1096.95 190.98 1080" stroke="rgba(51, 121, 194, 0.58)" stroke-width="2"></path><path d="M1472.73 1080C1472.73 1066.39 1545.59 1027.17 1620 1027.17C1709.22 1027.17 1800 1066.52 1800 1080C1800 1092.93 1710 1080 1620 1080C1546.36 1080 1472.73 1092.81 1472.73 1080" stroke="rgba(51, 121, 194, 0.58)" stroke-width="2"></path></g><defs><mask id="SvgjsMask1001"><rect width="1920" height="1080" fill="#ffffff"></rect></mask></defs></svg>