<svg xmlns="http://www.w3.org/2000/svg" version="1.1" xmlns:xlink="http://www.w3.org/1999/xlink" xmlns:svgjs="http://svgjs.dev/svgjs" width="1440" height="560" preserveAspectRatio="none" viewBox="0 0 1440 560"><g mask="url(&quot;#SvgjsMask1035&quot;)" fill="none"><rect width="1440" height="560" x="0" y="0" fill="rgba(0, 0, 0, 1)"></rect><path d="M 0,144 C 57.6,141.8 172.8,119.2 288,133 C 403.2,146.8 460.8,220.2 576,213 C 691.2,205.8 748.8,85.8 864,97 C 979.2,108.2 1036.8,271 1152,269 C 1267.2,267 1382.4,123.4 1440,87L1440 560L0 560z" fill="rgba(24, 10, 100, 1)"></path><path d="M 0,416 C 18,434.8 54,518.6 90,510 C 126,501.4 144,384.6 180,373 C 216,361.4 234,460.2 270,452 C 306,443.8 324,332.6 360,332 C 396,331.4 414,441.8 450,449 C 486,456.2 504,365.6 540,368 C 576,370.4 594,465.8 630,461 C 666,456.2 684,326.4 720,344 C 756,361.6 774,560 810,549 C 846,538 864,306.2 900,289 C 936,271.8 954,444 990,463 C 1026,482 1044,370.8 1080,384 C 1116,397.2 1134,523.8 1170,529 C 1206,534.2 1224,410.2 1260,410 C 1296,409.8 1314,533.6 1350,528 C 1386,522.4 1422,411.2 1440,382L1440 560L0 560z" fill="rgba(75, 37, 157, 1)"></path></g><defs><mask id="SvgjsMask1035"><rect width="1440" height="560" fill="#ffffff"></rect></mask></defs></svg>