<svg id="visual" viewBox="0 0 1920 90" width="1920" height="90" xmlns="http://www.w3.org/2000/svg" xmlns:xlink="http://www.w3.org/1999/xlink" version="1.1"><path d="M0 46L32 41.7C64 37.3 128 28.7 192 24.5C256 20.3 320 20.7 384 21.3C448 22 512 23 576 24.7C640 26.3 704 28.7 768 25.2C832 21.7 896 12.3 960 8C1024 3.7 1088 4.3 1152 15C1216 25.7 1280 46.3 1344 48C1408 49.7 1472 32.3 1536 31.2C1600 30 1664 45 1728 49.7C1792 54.3 1856 48.7 1888 45.8L1920 43L1920 91L1888 91C1856 91 1792 91 1728 91C1664 91 1600 91 1536 91C1472 91 1408 91 1344 91C1280 91 1216 91 1152 91C1088 91 1024 91 960 91C896 91 832 91 768 91C704 91 640 91 576 91C512 91 448 91 384 91C320 91 256 91 192 91C128 91 64 91 32 91L0 91Z" fill="#000000" stroke-linecap="round" stroke-linejoin="miter"></path></svg>